<svg width="96" height="22" viewBox="0 0 96 22" fill="none" xmlns="http://www.w3.org/2000/svg">
<path d="M0 18.3884C0 22.1322 1.60641 22.7824 3.75613 21.1787L13.4475 13.8078C14.6721 12.9069 15.2095 11.9389 15.2095 11H0V18.3884Z" fill="#009F9F"/>
<path d="M20.7982 18.3884C20.7982 22.1322 19.1918 22.7824 17.0421 21.1787L7.35072 13.8078C6.12609 12.9069 5.58866 11.9389 5.58866 11H20.7747L20.7982 18.3884Z" fill="#EF4923"/>
<path d="M20.7982 3.6116C20.7982 -0.132159 19.1918 -0.782363 17.0421 0.821274L7.35072 8.19217C6.12609 9.09313 5.58866 10.0611 5.58866 11H20.7747L20.7982 3.6116Z" fill="#F8971D"/>
<path d="M0 3.6116C0 -0.132159 1.60641 -0.782363 3.75613 0.821274L13.4475 8.19217C14.6721 9.09313 15.2095 10.0611 15.2095 11H0V3.6116Z" fill="#082F4D"/>
<path d="M27.0476 3.09553C27.0476 1.99339 27.3178 1.72515 28.425 1.72515H28.8919C29.9991 1.72515 30.2693 1.99339 30.2693 3.09553V7.71984C31.0563 6.86262 32.4102 6.32613 34.0342 6.32613C36.0018 6.32613 38.2162 7.23291 38.2162 10.5364V17.4874C38.2162 18.5896 37.946 18.8578 36.8388 18.8578H36.3719C35.2647 18.8578 34.9945 18.5896 34.9945 17.4874V11.0991C34.9945 9.72875 34.2075 9.34971 32.9388 9.34971C31.5115 9.34971 30.2957 9.91245 30.2957 12.3121V17.502C30.2957 18.6042 30.0255 18.8724 28.9184 18.8724H28.4514C27.3443 18.8724 27.0741 18.6042 27.0741 17.502L27.0476 3.09553Z" fill="#082F4D"/>
<path d="M43.8548 14.63C43.8548 15.878 44.2248 16.5631 46.2424 16.5631C48.2599 16.5631 48.5918 15.878 48.5918 14.63V8.41376C48.5918 7.31162 48.8619 7.04337 49.9691 7.04337H50.4361C51.5432 7.04337 51.8134 7.31162 51.8134 8.41376V14.63C51.8134 17.9102 50.1394 19.5867 46.2541 19.5867C42.5391 19.5867 40.6449 17.8373 40.6449 14.63V8.41376C40.6449 7.31162 40.9151 7.04337 42.0222 7.04337H42.4892C43.5963 7.04337 43.8665 7.31162 43.8665 8.41376L43.8548 14.63Z" fill="#082F4D"/>
<path d="M62.7264 12.1809C62.7264 10.6151 62.3094 9.75792 60.0833 9.75792C57.8573 9.75792 57.4021 10.6151 57.4021 12.1809V14.1373C57.4021 15.703 57.869 16.5603 60.0833 16.5603C62.3476 16.5603 62.7264 15.703 62.7264 14.1373V12.1809ZM54.2098 3.51831C54.2098 2.41617 54.48 2.14793 55.5872 2.14793H56.0306C57.1378 2.14793 57.4079 2.41617 57.4079 3.51831V8.14262C58.0482 7.2854 59.0819 6.74891 60.7794 6.74891C64.2007 6.74891 65.9451 8.75491 65.9451 12.2567V14.2073C65.9451 18.0502 63.7543 19.5663 60.0716 19.5663C56.8235 19.5663 54.2157 18.0473 54.2157 14.2073L54.2098 3.51831Z" fill="#082F4D"/>
<path d="M74.8112 16.3911C74.2425 16.4936 73.6653 16.5425 73.0873 16.5369C72.1769 16.5369 71.572 16.1433 71.5397 14.9916C71.5532 14.9293 71.5601 14.8658 71.5602 14.8021V10.0524H74.3413C75.4485 10.0524 75.7187 9.78415 75.7187 8.68202V8.41377C75.7187 7.31164 75.4485 7.04339 74.3413 7.04339H71.5602V5.2065C71.5602 4.10436 71.29 3.83612 70.1829 3.83612H69.7306C68.6235 3.83612 68.3533 4.10436 68.3533 5.2065V6.88886L68.3298 7.04048V14.8721C68.3298 15.0956 68.3376 15.3094 68.3533 15.5135C68.3488 15.7388 68.3765 15.9636 68.4355 16.1812C68.8848 18.7208 70.7144 19.5459 73.0785 19.5459C73.6568 19.5604 74.2349 19.5115 74.8024 19.4001C75.8861 19.1815 76.1563 18.7645 76.1563 17.6507V17.3825C76.1563 16.2803 75.8861 16.1841 74.8024 16.3795" fill="#082F4D"/>
<path d="M80.6936 11.7406H85.5422V11.3732C85.5422 10.1515 84.7287 9.51299 83.1076 9.51299C81.4865 9.51299 80.6965 10.1486 80.6965 11.3732L80.6936 11.7406ZM88.5435 12.9885C88.3967 14.114 88.0766 14.3327 86.943 14.3327H80.6936V14.7C80.6936 15.9713 81.6275 16.5603 83.924 16.5603C84.9256 16.545 85.9231 16.4307 86.9019 16.2191C87.9856 16.0004 88.2058 16.292 88.2058 17.3854V17.6536C88.2058 18.7558 87.9856 18.9745 86.9019 19.2456C85.9169 19.4647 84.9099 19.5714 83.9005 19.5634C79.5453 19.5634 77.4778 17.9977 77.4778 14.2044V12.245C77.4778 9.0873 78.9286 6.73724 83.2104 6.73724C86.802 6.73724 88.5993 8.5479 88.5993 12.0234C88.6016 12.3419 88.5849 12.6603 88.5494 12.9768" fill="#082F4D"/>
<path d="M90.7579 3.51831C90.7579 2.41617 91.0281 2.14793 92.1352 2.14793H92.5787C93.6858 2.14793 93.956 2.41617 93.956 3.51831V14.875C93.956 16.1462 94.2996 16.5136 95.0397 16.5136H95.163C95.8032 16.5136 96 16.6594 96 17.6391V18.1056C96 19.0853 95.8032 19.3535 95.163 19.476C94.9203 19.5224 94.6727 19.5391 94.4259 19.5255C92.3349 19.5255 90.7608 18.3738 90.7608 15.5835L90.7579 3.51831Z" fill="#082F4D"/>
</svg>
